<?xml version="1.0" encoding="utf-8"?>
<!-- Generator: Adobe Illustrator 23.0.1, SVG Export Plug-In . SVG Version: 6.00 Build 0)  -->
<svg version="1.1" id="Layer_2" xmlns="http://www.w3.org/2000/svg" xmlns:xlink="http://www.w3.org/1999/xlink" x="0px" y="0px"
	 viewBox="0 0 362 369" style="enable-background:new 0 0 362 369;" xml:space="preserve">
<style type="text/css">
	.st0{fill:#fff;}
	.st1{fill:#00BFFF;}
	.st2{fill:#00BFFF;}
</style>
<g>
	<path class="st0" d="M21.37,64.34 M338,144.5c0,10.2-8.3,18.5-18.5,18.5h-16.93c-16.86,0-30.57,13.71-30.57,30.57v131.02
		c0,11.26-9.15,20.41-20.41,20.41H110.41C99.15,345,90,335.85,90,324.59V193.57C90,176.71,76.29,163,59.43,163H42.5
		c-10.2,0-18.5-8.3-18.5-18.5V93.87c0-5,2.72-9.62,7.09-12.06l93.63-52.1c5.54-3.08,11.82-4.71,18.17-4.71h76.22
		c6.35,0,12.63,1.63,18.17,4.71l93.63,52.1c4.37,2.44,7.09,7.06,7.09,12.06V144.5z"/>
</g>
<g>
	<path class="st1" d="M340.63,64.34l-93.62-52.1C238.48,7.49,228.88,5,219.11,5h-76.22c-9.77,0-19.37,2.49-27.9,7.24l-93.62,52.1
		C10.65,70.3,4,81.61,4,93.87v50.63C4,165.76,21.24,183,42.5,183h16.93c5.84,0,10.57,4.73,10.57,10.57v131.02
		C70,346.91,88.09,365,110.41,365h141.18c22.32,0,40.41-18.09,40.41-40.41V193.57c0-5.84,4.73-10.57,10.57-10.57h16.93
		c21.26,0,38.5-17.24,38.5-38.5V93.87C358,81.61,351.35,70.3,340.63,64.34z M338,144.5c0,10.2-8.3,18.5-18.5,18.5h-16.93
		c-16.86,0-30.57,13.71-30.57,30.57v131.02c0,11.26-9.15,20.41-20.41,20.41H110.41C99.15,345,90,335.85,90,324.59V193.57
		C90,176.71,76.29,163,59.43,163H42.5c-10.2,0-18.5-8.3-18.5-18.5V93.87c0-5,2.72-9.62,7.09-12.06l93.63-52.1
		c5.54-3.08,11.82-4.71,18.17-4.71h76.22c6.35,0,12.63,1.63,18.17,4.71l93.63,52.1c4.37,2.44,7.09,7.06,7.09,12.06V144.5z"/>
</g>
<path class="st2" d="M237.28,29.71c-4.7-2.61-9.92-4.18-15.28-4.59C217.85,43.93,201.07,58,181,58s-36.85-14.07-41-32.88
	c-5.36,0.41-10.58,1.98-15.28,4.59l-1.89,1.05C129.4,56.76,152.95,76,181,76s51.6-19.24,58.17-45.24L237.28,29.71z"/>
</svg>
